<?xml version="1.0" standalone="no"?>
<!DOCTYPE svg PUBLIC "-//W3C//DTD SVG 20010904//EN"
 "http://www.w3.org/TR/2001/REC-SVG-20010904/DTD/svg10.dtd">
<svg version="1.0" xmlns="http://www.w3.org/2000/svg"
 width="1240.000000pt" height="798.000000pt" viewBox="0 0 1240.000000 798.000000"
 preserveAspectRatio="xMidYMid meet">

<g transform="translate(0.000000,798.000000) scale(0.100000,-0.100000)"
fill="#000000" stroke="none">
<path d="M4093 6879 c-22 -11 -54 -39 -69 -61 -24 -34 -29 -51 -29 -103 0 -50
5 -69 27 -103 66 -100 203 -114 290 -31 l41 39 464 0 465 0 266 -194 c147
-106 277 -198 289 -205 15 -8 158 -11 492 -11 l470 0 25 -22 c15 -15 36 -59
57 -123 17 -55 34 -104 36 -110 2 -7 -359 -10 -1069 -11 l-1073 -2 -115 -64
c-63 -36 -135 -76 -160 -90 -25 -14 -114 -64 -198 -112 l-154 -86 -380 0 -379
0 -27 31 c-33 39 -78 59 -136 59 -110 0 -189 -77 -189 -186 0 -169 206 -250
323 -129 l34 35 398 0 397 0 312 175 311 175 1284 0 c868 0 1300 -3 1336 -11
190 -38 283 -114 459 -376 132 -196 189 -266 275 -337 165 -136 314 -182 642
-196 164 -8 386 -32 400 -45 1 -1 -13 -25 -32 -53 -47 -71 -59 -113 -54 -191
8 -106 65 -192 161 -243 34 -18 58 -23 127 -23 76 0 91 3 139 30 61 34 103 80
128 142 10 24 21 43 24 43 3 0 20 -26 37 -57 34 -65 59 -153 64 -228 l3 -50
-553 -2 -553 -2 -22 27 c-67 84 -178 180 -254 220 -217 114 -469 114 -686 0
-76 -40 -187 -136 -255 -220 l-22 -28 -1050 0 -1051 1 -21 27 c-67 83 -182
182 -257 221 -216 112 -465 112 -684 -1 -66 -34 -102 -62 -184 -145 l-102
-102 -894 -1 -893 0 -42 39 c-74 69 -164 79 -242 27 -113 -75 -105 -263 15
-320 84 -40 164 -27 227 36 l38 38 855 0 c839 0 855 0 855 -19 0 -11 -5 -32
-11 -48 -6 -15 -10 -67 -10 -115 l2 -88 -406 0 -406 0 -25 29 c-33 40 -83 61
-144 61 -58 0 -93 -15 -131 -57 -40 -43 -52 -72 -52 -128 0 -108 79 -185 189
-185 56 0 101 19 138 59 l30 31 422 0 421 0 26 -60 c74 -170 242 -322 426
-386 354 -123 748 44 903 384 l28 62 979 0 979 0 30 -65 c185 -394 665 -540
1040 -317 118 70 237 203 285 318 l25 59 526 3 527 2 34 76 c144 315 174 628
83 858 -109 277 -394 473 -791 541 -50 9 -195 23 -322 30 -240 15 -285 21
-375 57 -147 58 -231 140 -397 384 -139 204 -210 288 -295 346 -139 93 -258
127 -487 137 l-154 6 -48 143 c-54 161 -73 197 -132 247 -74 63 -89 65 -589
65 l-448 0 -282 205 -282 205 -498 0 c-484 0 -498 1 -508 20 -6 11 -30 31 -54
45 -54 32 -124 33 -183 4z m5362 -2224 c94 -45 72 -178 -33 -192 -37 -5 -45
-2 -77 30 -21 21 -35 45 -35 60 0 46 21 85 53 101 40 20 51 20 92 1z m-4560
-380 c229 -67 385 -280 385 -526 0 -149 -52 -273 -159 -380 -109 -109 -219
-152 -386 -152 -240 0 -450 162 -516 398 -23 81 -16 237 13 315 71 193 224
326 413 360 65 12 182 4 250 -15z m3347 -2 c166 -49 303 -189 363 -371 23 -71
23 -217 0 -297 -59 -201 -239 -359 -440 -385 -277 -36 -512 113 -601 380 -25
76 -25 235 0 310 28 82 70 150 136 223 83 90 182 142 305 161 49 7 183 -4 237
-21z m-869 -309 c3 -3 -1 -27 -9 -52 -7 -26 -14 -84 -14 -129 l0 -83 -940 0
-940 0 0 68 c-1 37 -7 95 -14 129 -7 34 -11 65 -8 68 7 7 1917 6 1925 -1z
m2410 -1 c6 -10 -38 -165 -63 -220 l-19 -43 -444 0 -444 0 -7 98 c-3 53 -9
114 -12 135 l-6 37 495 0 c273 0 498 -3 500 -7z"/>
<path d="M4676 3958 c-62 -17 -131 -92 -145 -157 -36 -171 137 -314 294 -242
43 19 100 78 116 118 14 37 11 119 -6 161 -41 97 -154 149 -259 120z"/>
<path d="M8030 3961 c-101 -31 -163 -109 -163 -206 0 -89 46 -159 128 -196
104 -48 237 4 282 110 21 49 18 131 -6 179 -45 88 -154 139 -241 113z"/>
<path d="M6120 5529 c-16 -34 -30 -65 -30 -69 0 -5 -23 -67 -51 -139 l-51
-131 -1062 0 -1061 0 -271 -270 -270 -271 -313 1 -312 2 -26 29 c-34 38 -100
69 -146 69 -42 0 -102 -22 -130 -48 -34 -31 -60 -94 -59 -144 3 -169 204 -248
321 -127 l39 39 357 0 356 0 261 265 260 265 989 0 c544 0 989 -2 989 -5 0 -4
-6 -18 -14 -33 -14 -26 -56 -145 -56 -157 0 -3 484 -5 1075 -5 591 0 1075 2
1075 5 0 2 -92 148 -205 323 -125 194 -221 334 -246 357 -50 45 -126 81 -199
95 -31 6 -281 10 -621 10 l-568 0 -31 -61z m1263 -158 c22 -13 59 -55 87 -97
28 -40 50 -75 50 -77 0 -1 29 -47 65 -102 36 -54 65 -101 65 -104 0 -6 -1522
-2 -1528 4 -2 1 26 78 62 170 37 92 66 171 66 175 0 5 4 20 10 35 l10 26 537
-3 538 -3 38 -24z"/>
<path d="M5764 4587 c-3 -8 -4 -49 -2 -93 l3 -79 320 0 320 0 3 93 3 92 -321
0 c-259 0 -322 -3 -326 -13z"/>
<path d="M6521 2329 c-72 -22 -141 -84 -187 -169 -18 -32 -19 -60 -19 -365 0
-325 0 -331 23 -373 97 -181 322 -227 463 -95 69 64 101 135 107 234 l5 79
-97 0 -96 0 0 -44 c0 -114 -72 -180 -154 -141 -62 30 -66 51 -66 339 0 275 5
307 51 340 44 31 114 15 146 -33 9 -14 19 -53 22 -86 l6 -60 90 0 90 0 -1 81
c-1 62 -6 92 -23 127 -28 58 -88 120 -143 148 -49 25 -162 35 -217 18z"/>
<path d="M8963 2326 c-96 -31 -183 -127 -203 -223 -15 -72 -5 -145 31 -220 36
-75 64 -100 220 -189 84 -48 125 -77 136 -98 42 -80 -53 -183 -133 -144 -53
26 -71 66 -73 166 -1 22 -3 23 -93 20 l-93 -3 1 -81 c1 -69 5 -88 30 -133 15
-29 50 -73 77 -97 187 -168 487 -27 487 228 0 77 -19 134 -60 180 -34 39 -71
63 -256 171 -79 46 -110 116 -78 182 32 68 111 85 166 36 31 -28 33 -32 38
-123 l5 -93 90 0 90 0 3 89 c4 121 -14 179 -75 244 -27 27 -68 60 -91 72 -55
27 -161 35 -219 16z"/>
<path d="M1478 2322 l-58 -3 0 -524 0 -523 63 -4 c34 -1 77 -1 95 1 l32 3 0
219 0 219 148 0 c102 0 152 4 160 12 12 12 17 143 6 172 -5 14 -29 16 -160 16
l-154 0 0 110 0 110 154 0 c177 0 166 -8 166 113 0 45 -4 69 -12 72 -16 6
-363 11 -440 7z"/>
<path d="M2713 2322 c-22 -3 -24 -7 -43 -112 -126 -694 -166 -926 -163 -932 2
-5 44 -8 93 -8 94 0 100 3 100 55 0 52 5 55 110 55 l99 0 6 -55 7 -55 94 0
c69 0 94 3 94 13 0 25 -174 1022 -179 1029 -6 7 -182 15 -218 10z m132 -556
c14 -98 25 -187 25 -197 0 -17 -8 -19 -59 -19 -33 0 -62 3 -64 8 -4 8 50 368
60 392 8 21 9 14 38 -184z"/>
<path d="M3858 2322 l-68 -3 0 -523 0 -524 78 -4 c121 -7 112 -20 113 161 0
86 1 185 2 221 l2 65 68 -1 c78 -1 111 -19 139 -75 15 -28 18 -62 18 -201 l0
-168 96 0 96 0 -4 198 -3 197 -33 68 -34 68 27 39 c39 56 54 106 55 180 0 86
-24 150 -78 206 -70 74 -123 92 -277 96 -71 2 -160 2 -197 0z m328 -226 c28
-28 34 -42 34 -76 0 -34 -6 -48 -34 -76 -33 -33 -36 -34 -120 -34 l-86 0 0
110 0 110 86 0 c84 0 87 -1 120 -34z"/>
<path d="M5124 2321 c-5 -6 -5 -1046 0 -1052 2 -2 116 -2 253 1 l248 5 0 90 0
90 -157 3 -158 3 0 124 0 125 154 0 c176 0 166 -5 166 93 0 114 11 107 -166
107 l-154 0 0 110 0 110 154 0 c178 0 165 -9 158 117 l-4 72 -245 3 c-135 2
-247 1 -249 -1z"/>
<path d="M10247 2322 l-268 -2 3 -93 3 -92 97 -3 98 -3 2 -427 3 -427 93 -3
92 -3 0 430 0 430 103 3 102 3 3 93 c3 86 1 92 -17 92 -11 0 -25 1 -33 3 -7 1
-134 1 -281 -1z"/>
<path d="M7705 2288 c-20 -102 -31 -165 -91 -498 -35 -201 -71 -398 -80 -439
-8 -40 -12 -76 -10 -79 11 -10 181 -1 188 11 4 7 8 24 8 39 0 56 4 58 110 58
l99 0 6 -54 7 -55 90 -3 c63 -2 92 1 95 9 3 6 -35 243 -84 525 l-89 513 -121
3 -121 3 -7 -33z m160 -522 c14 -98 25 -187 25 -197 0 -17 -8 -19 -59 -19 -33
0 -62 3 -64 8 -5 7 50 366 60 392 8 22 9 14 38 -184z"/>
</g>
</svg>
